<svg width="80" height="80" fill="none" xmlns="http://www.w3.org/2000/svg"><g clip-path="url(#clip0_120_1329)" fill="#1E959B"><path d="M28.648 60.317a1.17 1.17 0 00-1.17 1.17v6.16a1.17 1.17 0 102.34 0v-6.16a1.17 1.17 0 00-1.17-1.17zm22.642 0a1.17 1.17 0 00-1.17 1.17v6.16a1.17 1.17 0 102.34 0v-6.16a1.17 1.17 0 00-1.17-1.17z"/><path d="M74.017 56.234l-3.916-1.572v-1a7.763 7.763 0 002.04-1.64 6.936 6.936 0 006.382-2.685c1.587-2.058 1.917-4.71.883-7.093l-1.759-4.055a3.741 3.741 0 01-.27-.955 11.067 11.067 0 00-21.905 0c-.048.329-.139.65-.271.955l-1.759 4.055c-1.033 2.383-.703 5.035.884 7.093 1.357 1.76 3.368 2.74 5.53 2.74.278 0 .56-.016.842-.05a7.694 7.694 0 001.834 1.523v1.112l-3.916 1.572a7.91 7.91 0 00-.748.346 10.211 10.211 0 00-3.186-3.538l-5.1-3.509a2.146 2.146 0 00-.754-1.738l-2.073-1.759a2.148 2.148 0 00-.65-.378V43.29a10.486 10.486 0 004.2-6.785h.125a4.05 4.05 0 004.044-4.044c0-.952-.331-1.828-.884-2.52l.836-5.944c.603-4.284-2.389-8.288-6.669-8.924l-.166-.025a10.32 10.32 0 00-6.031-4.566l-.306-.087a11.92 11.92 0 00-9.895 1.566 1.17 1.17 0 101.3 1.944 9.585 9.585 0 017.956-1.26l.307.087a8.012 8.012 0 014.918 3.96 8.01 8.01 0 01.944 4.293l-.793-.681a1.979 1.979 0 00-2.533-.04l-1.04.84H36.48a6.995 6.995 0 00-6.987 6.988v.325c-.31 0-.611.038-.901.105a13.65 13.65 0 011.038-11.348 1.17 1.17 0 00-2.025-1.172c-2.403 4.15-2.793 9.25-1.065 13.715a4.028 4.028 0 00-1.076 2.744 4.05 4.05 0 004.045 4.044h.124a10.485 10.485 0 004.2 6.785v2.368a2.141 2.141 0 00-.65.378l-2.073 1.759a2.146 2.146 0 00-.753 1.738l-5.101 3.509a10.21 10.21 0 00-2.613 2.605 9.418 9.418 0 00-1.409-.634l-3.463-1.227v-.922a7.34 7.34 0 003.386-5.03h.523a3.726 3.726 0 003.722-3.721c0-.922-.337-1.765-.894-2.416l.209-2.472a10.063 10.063 0 00-4.155-9.032 10.063 10.063 0 00-9.878-1.136l-2.331.98a7.121 7.121 0 00-5.508 7.93l.522 3.718a3.705 3.705 0 00-.904 2.428 3.726 3.726 0 003.722 3.721h.523a7.335 7.335 0 003.05 4.808v1.144l-3.464 1.227a9.493 9.493 0 00-1.42.64A1.17 1.17 0 106.005 57.7a7.103 7.103 0 011.07-.482l2.992-1.06a4.013 4.013 0 003.697 2.461 4.013 4.013 0 003.696-2.462l2.993 1.06c.377.134.74.3 1.088.494a10.214 10.214 0 00-.713 3.75V68.4a1.17 1.17 0 102.339 0v-6.94a7.877 7.877 0 013.414-6.49l4.872-3.35 1.996 2.669a2.245 2.245 0 002.445.8l2.905-.884V68.89a1.17 1.17 0 102.34 0V54.206l2.905.885a2.246 2.246 0 002.444-.801l1.997-2.67 4.871 3.35a7.876 7.876 0 013.414 6.492V68.4a1.17 1.17 0 102.34 0v-6.94c0-.92-.125-1.825-.362-2.693a5.61 5.61 0 01.739-.362l3.396-1.363a3.789 3.789 0 003.433 2.196c1.52 0 2.832-.9 3.434-2.196l3.396 1.363a5.606 5.606 0 013.535 5.227v1.98a1.17 1.17 0 102.34 0v-1.98a7.936 7.936 0 00-5.004-7.398zM27.803 32.46c0-.935.757-1.697 1.69-1.705v3.409a1.706 1.706 0 01-1.69-1.704zM21.68 45.495h-.423V42.73h.423a1.384 1.384 0 010 2.765zM4.802 44.113c0-.763.62-1.383 1.382-1.383h.423v2.765h-.423c-.762 0-1.382-.62-1.382-1.382zm3.225-7.328a7.421 7.421 0 00-1.379 3.606h-.464c-.214 0-.424.019-.629.054l-.393-2.803a4.778 4.778 0 013.775-5.338 1.16 1.16 0 00.22-.068l2.434-1.023a7.74 7.74 0 017.598.874 7.74 7.74 0 013.196 6.944l-.119 1.406a3.733 3.733 0 00-.586-.046h-.433a1.972 1.972 0 00-1.958-1.769H16.4a9.547 9.547 0 01-5.735-1.929l-.331-.25a1.64 1.64 0 00-1.226-.314 1.642 1.642 0 00-1.08.656zm1.895 1.372zm-.976 3.012c0-.846.204-1.663.594-2.4a11.906 11.906 0 006.86 2.193h2.518v5.666a4.992 4.992 0 01-4.986 4.986 4.992 4.992 0 01-4.986-4.986V41.17zm4.818 15.11a1.67 1.67 0 01-1.668-1.667v-.891a7.313 7.313 0 003.335.078v.813a1.67 1.67 0 01-1.667 1.668zm36.68-22.114v-3.409c.933.008 1.69.77 1.69 1.705s-.757 1.696-1.69 1.704zM52.11 23.67l-.685 4.87a4.039 4.039 0 00-.98-.125v-.094c0-1.886-.583-3.7-1.64-5.216.461-1.774.445-3.6-.032-5.336 2.26.965 3.694 3.363 3.337 5.901zM31.832 34.807V28.09a4.653 4.653 0 014.648-4.647h6.35c.268 0 .528-.092.736-.26l1.127-.911 1.048.9a6.782 6.782 0 012.364 5.149v6.485c0 4.486-3.65 8.136-8.136 8.136-4.487 0-8.137-3.65-8.137-8.136zm8.137 10.475a10.41 10.41 0 003.796-.715v1.5l-3.796 1.86-3.797-1.86v-1.5c1.178.46 2.458.715 3.797.715zm-4.689 7.549l-2.52-3.37 1.84-1.56 4.199 2.058v1.8l-3.519 1.072zm9.377 0l-3.519-1.071v-1.8l4.199-2.06 1.84 1.562-2.52 3.369zm11.52-4.923a4.633 4.633 0 01-.588-4.733l1.758-4.055a6.064 6.064 0 00.44-1.553c.614-4.266 4.327-7.483 8.637-7.483 4.31 0 8.023 3.217 8.637 7.483.077.535.225 1.057.44 1.553l1.759 4.055a4.63 4.63 0 01-.59 4.733 4.629 4.629 0 01-3.115 1.792 7.512 7.512 0 00.477-2.079 1.17 1.17 0 00-2.331-.193c-.226 2.721-2.543 4.853-5.277 4.853a5.302 5.302 0 01-5.296-5.297v-5.611c0-1.244.366-2.468 1.04-3.507a9.15 9.15 0 005.286 1.867l4.267.112v2.695a1.17 1.17 0 102.339 0v-3.011c0-1.1-.862-1.985-1.961-2.014l-4.584-.12a6.796 6.796 0 01-4.087-1.514l-.302-.246a1.697 1.697 0 00-1.262-.373 1.698 1.698 0 00-1.153.632 8.801 8.801 0 00-1.923 5.48v5.61c0 .956.178 1.87.5 2.714a4.627 4.627 0 01-3.11-1.79zm10.14 8.99a1.447 1.447 0 01-1.446-1.445v-.992a7.519 7.519 0 002.89.038v.955c0 .796-.648 1.444-1.445 1.444zM2.507 59.26a1.17 1.17 0 00-1.563.543A9.37 9.37 0 000 63.918v3.729a1.17 1.17 0 102.34 0v-3.729c0-1.08.238-2.121.71-3.096a1.17 1.17 0 00-.543-1.562z"/></g><defs><clipPath id="clip0_120_1329"><path fill="#fff" d="M0 0h80v80H0z"/></clipPath></defs></svg>