<svg width="80" height="80" fill="none" xmlns="http://www.w3.org/2000/svg"><path d="M61.25 60A3.755 3.755 0 0065 56.25a3.755 3.755 0 00-3.75-3.75 3.755 3.755 0 00-3.75 3.75A3.755 3.755 0 0061.25 60zm0-5a1.251 1.251 0 010 2.5 1.251 1.251 0 010-2.5z" fill="#1E959B"/><path d="M73.95 50.972a2.399 2.399 0 01.511-2.628l1.819-1.82-5.305-5.305-1.821 1.82c-.689.69-1.721.89-2.676.49A2.382 2.382 0 0165 41.319V38.75h-2.564a22.151 22.151 0 00-1.107-5.811l14.465-14.465a10.025 10.025 0 002.956-7.135c0-5.563-4.526-10.089-10.089-10.089a10.02 10.02 0 00-7.133 2.955l-14.45 14.451a22.204 22.204 0 00-5.897-1.101C39.456 14.541 36.215 12.5 32.5 12.5c-.951 0-1.869.143-2.742.391C27.6 8.835 23.407 6.25 18.75 6.25c-6.893 0-12.5 5.607-12.5 12.5 0 .957.117 1.9.331 2.823-3.081.932-5.331 3.796-5.331 7.177 0 4.136 3.364 7.5 7.5 7.5h9.067A22.665 22.665 0 0017.5 40c0 2.751.509 4.99 1.33 6.903L7.679 58.055 1.474 74.188a3.32 3.32 0 00-.224 1.203 3.363 3.363 0 004.564 3.135l16.132-6.205 8.154-8.155c-.061.269-.1.547-.1.834 0 .964.376 1.835.975 2.5A3.72 3.72 0 0030 70c0 1.737 1.194 3.19 2.8 3.612 1.065 3.05 3.918 5.138 7.2 5.138s6.135-2.088 7.2-5.138C48.806 73.19 50 71.739 50 70c0-.094-.021-.181-.028-.272l1.553 1.552 1.821-1.82c.689-.69 1.718-.891 2.675-.492A2.392 2.392 0 0157.5 71.18v2.569H65V71.18c0-.972.581-1.841 1.528-2.232a2.396 2.396 0 012.627.511l1.82 1.82 5.305-5.305-1.819-1.82c-.689-.69-.89-1.721-.491-2.676A2.386 2.386 0 0176.181 60h2.569v-7.5h-2.569c-.972 0-1.84-.581-2.231-1.528zm-18.73 3.685c1.364-1.33 2.73-2.69 3.909-4.263A6.176 6.176 0 0161.25 50a6.257 6.257 0 016.25 6.25 6.257 6.257 0 01-6.25 6.25A6.257 6.257 0 0155 56.25c0-.541.084-1.074.22-1.593zm1.501-29.61l5.779-5.78 4.483 4.483-6.677 6.676a22.681 22.681 0 00-3.585-5.378zm1.297-13.797L60 9.268 70.733 20l-1.983 1.983L58.017 11.25zm10.643-7.5c4.184 0 7.589 3.405 7.589 7.589a7.54 7.54 0 01-2.222 5.366L72.5 18.233 61.767 7.5l1.528-1.527a7.543 7.543 0 015.366-2.223zM56.25 13.018l4.483 4.482-5.777 5.776a22.66 22.66 0 00-5.376-3.588l6.67-6.67zM60 40c0 6.504-3.275 9.699-6.742 13.08-2.388 2.329-4.84 4.736-6.268 8.245a3.7 3.7 0 00-.74-.075h-5V55a3.755 3.755 0 00-3.75-3.75H35a1.251 1.251 0 010-2.5h12.5A3.755 3.755 0 0051.25 45a3.755 3.755 0 00-3.75-3.75h-10c-.689 0-1.25-.56-1.25-1.25v-3.75h6.25A6.257 6.257 0 0048.75 30a6.257 6.257 0 00-6.25-6.25c-.035 0-.068.01-.102.01.053-.418.102-.835.102-1.26 0-.817-.11-1.609-.295-2.37C52.17 21.24 60 29.793 60 40zM32.5 65c0-.69.561-1.25 1.25-1.25h12.5a1.251 1.251 0 010 2.5h-12.5c-.689 0-1.25-.56-1.25-1.25zm-15.733 0l9.19-9.189c1.537 1.525 2.964 3.068 4.017 4.947l-8.724 8.724L16.767 65zM3.75 28.75c0-2.758 2.242-5 5-5s5 2.242 5 5h2.5c0-4.027-3.194-7.315-7.18-7.484a9.991 9.991 0 01-.32-2.516c0-5.514 4.486-10 10-10a9.969 9.969 0 018.711 5.126c-2.665 1.564-4.547 4.318-4.898 7.531-2.183.538-3.813 2.497-3.813 4.843h2.5c0-1.379 1.121-2.5 2.5-2.5s2.5 1.121 2.5 2.5h2.5c0-2.294-1.56-4.21-3.669-4.797C25.594 17.813 28.72 15 32.5 15c4.136 0 7.5 3.364 7.5 7.5 0 .657-.108 1.301-.275 1.929-2.05 1.026-3.475 3.126-3.475 5.571h2.5a3.755 3.755 0 013.75-3.75A3.755 3.755 0 0146.25 30a3.755 3.755 0 01-3.75 3.75H8.75c-2.758 0-5-2.242-5-5zm30 7.5V40a3.755 3.755 0 003.75 3.75h10a1.251 1.251 0 010 2.5H35A3.755 3.755 0 0031.25 50 3.755 3.755 0 0035 53.75h2.5c.689 0 1.25.56 1.25 1.25v6.25h-5a3.7 3.7 0 00-.74.075c-1.427-3.509-3.88-5.916-6.267-8.245C23.274 49.699 20 46.504 20 40c0-1.264.151-2.516.385-3.75H33.75zm-9.579 17.811L15 63.233l-4.482-4.483 9.537-9.538c1.174 1.843 2.629 3.38 4.116 4.85zM9.226 60.994l9.78 9.78-8.28 3.185-4.685-4.685 3.185-8.28zM4.917 76.192c-.54.21-1.167-.22-1.167-.8 0-.107.02-.21.056-.308l1.253-3.258 3.113 3.114-3.255 1.252zM40 76.25a5.136 5.136 0 01-4.405-2.5h8.81A5.136 5.136 0 0140 76.25zm6.25-5h-12.5a1.251 1.251 0 010-2.5h12.5a1.251 1.251 0 010 2.5zm30-13.75h-.069c-1.989 0-3.763 1.188-4.538 3.065a4.89 4.89 0 001.05 5.358l.052.052-1.77 1.77-.052-.053c-1.41-1.41-3.516-1.823-5.4-1.033A4.88 4.88 0 0062.5 71.18v.069H60v-.069c0-1.989-1.188-3.763-3.065-4.54a4.886 4.886 0 00-5.359 1.051l-.052.053-1.694-1.694c.1-.336.17-.683.17-1.051 0-.888-.322-1.693-.84-2.336.778-2.099 1.996-3.778 3.415-5.328C53.112 61.65 56.794 65 61.25 65c4.825 0 8.75-3.926 8.75-8.75s-3.925-8.75-8.75-8.75c-.123 0-.241.013-.362.017.846-1.756 1.427-3.792 1.573-6.267h.039v.069c0 1.988 1.188 3.765 3.064 4.538 1.845.773 3.95.36 5.359-1.05l.052-.052 1.77 1.77-.053.053c-1.407 1.408-1.82 3.512-1.033 5.397A4.877 4.877 0 0076.18 55h.069v2.5z" fill="#1E959B"/></svg>