<svg width="80" height="80" fill="none" xmlns="http://www.w3.org/2000/svg"><path d="M62.656 0H8.906A4.693 4.693 0 004.22 4.688v70.624A4.693 4.693 0 008.906 80H44.22a1.563 1.563 0 000-3.125H8.906c-.861 0-1.562-.7-1.562-1.563V4.689c0-.862.7-1.563 1.562-1.563h53.75c.862 0 1.563.7 1.563 1.563V35.85a1.563 1.563 0 003.125 0V4.687A4.693 4.693 0 0062.656 0z" fill="#1E959B"/><path d="M66.886 40.145a1.573 1.573 0 00-1.105-.458c-.41 0-.814.168-1.104.458a1.574 1.574 0 00-.458 1.105c0 .41.167.814.458 1.105.29.29.693.458 1.104.458.411 0 .814-.168 1.105-.459.29-.29.458-.693.458-1.104 0-.41-.167-.814-.458-1.105zM15.01 8.895a1.573 1.573 0 00-1.104-.457c-.41 0-.814.167-1.104.457A1.574 1.574 0 0012.344 10c0 .41.167.814.458 1.104.29.291.693.459 1.104.459.411 0 .814-.168 1.105-.459.29-.29.458-.693.458-1.104 0-.41-.167-.814-.458-1.105zm42.646 9.543c-.863 0-1.562.7-1.562 1.562v18.438h-5.625V19.599l8.393-8.393a1.563 1.563 0 00-2.21-2.21l-16.49 16.49-9.542-9.543c-.61-.61-1.6-.61-2.21 0l-12.941 12.94V16.299a1.563 1.563 0 00-3.125 0V40c0 .863.7 1.563 1.562 1.563h43.75c.863 0 1.563-.7 1.563-1.563V20c0-.863-.7-1.563-1.563-1.563zm-36.562 20h-5.625v-5.134l5.625-5.625v10.759zm8.75 0h-5.625V24.553l5.296-5.296.329.329v18.852zm8.75 0h-5.625V22.71l5.625 5.625v10.102zm8.75 0h-5.625V28.349l5.625-5.625v15.713zm-19.219 7.5H13.906a1.563 1.563 0 000 3.124h14.219a1.563 1.563 0 000-3.124zm0 7.5H13.906a1.563 1.563 0 000 3.124h14.219a1.563 1.563 0 000-3.124zm0 7.5H13.906a1.563 1.563 0 000 3.124h14.219a1.563 1.563 0 000-3.124zm0 7.5H13.906a1.563 1.563 0 000 3.124h14.219a1.563 1.563 0 000-3.124zm31.094-21.563c-4.005 0-7.682 1.43-10.55 3.804l-.023-.024v-3.359a1.563 1.563 0 00-3.125 0v.234l-1.339-1.339a1.563 1.563 0 00-2.21 2.21l1.339 1.339h-.234a1.563 1.563 0 000 3.125h3.359l.024.023a16.487 16.487 0 00-3.804 10.55C42.656 72.57 50.086 80 59.22 80c9.132 0 16.562-7.43 16.562-16.563 0-9.132-7.43-16.562-16.562-16.562zm0 30c-7.41 0-13.438-6.028-13.438-13.438a13.37 13.37 0 012.902-8.325l2.227 2.227a10.256 10.256 0 00-2.004 6.099c0 5.686 4.626 10.312 10.313 10.312 5.686 0 10.312-4.626 10.312-10.313 0-5.686-4.626-10.312-10.312-10.312-2.28 0-4.39.745-6.1 2.004l-2.226-2.227A13.367 13.367 0 0159.219 50c7.41 0 13.437 6.028 13.437 13.438 0 7.41-6.028 13.437-13.437 13.437zm0-8.75a4.693 4.693 0 004.687-4.688 4.693 4.693 0 00-4.687-4.687 4.66 4.66 0 00-2.02.458l-1.833-1.833a7.141 7.141 0 013.853-1.125c3.963 0 7.187 3.224 7.187 7.188 0 3.963-3.224 7.187-7.187 7.187s-7.188-3.224-7.188-7.188c0-1.416.414-2.738 1.125-3.852l1.833 1.833a4.66 4.66 0 00-.458 2.02 4.693 4.693 0 004.688 4.687zm.096-6.245a1.562 1.562 0 11-1.654 1.654c.032.002.064.005.096.005a1.558 1.558 0 001.558-1.66z" fill="#1E959B"/></svg>