<svg width="80" height="80" fill="none" xmlns="http://www.w3.org/2000/svg"><path d="M57.073 0H9.793A9.205 9.205 0 00.602 9.193v47.17a9.205 9.205 0 009.193 9.194H24.24V62.93H9.794a6.575 6.575 0 01-6.567-6.566V34.146h8.434a1.413 1.413 0 001.203-1.949 5.253 5.253 0 119.62 0 1.362 1.362 0 001.202 1.95h8.434v7.88a7.88 7.88 0 00-4.465 14.994l1.05-2.407a5.253 5.253 0 012.102-10.07c.724 0 1.44.15 2.101.444a1.313 1.313 0 001.839-1.203v-9.639h6.678a7.687 7.687 0 00-.112 1.313 7.902 7.902 0 006.304 7.723l.526-2.573a5.27 5.27 0 01-4.203-5.15c0-.723.151-1.439.444-2.1a1.313 1.313 0 00-1.203-1.84h-8.434v-6.678a7.88 7.88 0 100-15.537V2.628h22.326a6.575 6.575 0 016.567 6.566V31.52h-8.434a1.313 1.313 0 00-1.203 1.838 5.21 5.21 0 01.444 2.102h2.626c0-.44-.037-.88-.111-1.314h7.991c.725 0 1.313-.588 1.313-1.313V9.193A9.205 9.205 0 0057.073 0zM36.06 11.82a5.253 5.253 0 010 10.506c-.724 0-1.44-.15-2.101-.444a1.313 1.313 0 00-1.839 1.203v8.326h-6.669c.066-.399.1-.801.103-1.205v-.108a7.88 7.88 0 10-15.76 0v.107c.002.404.036.806.102 1.205H3.227V9.193a6.574 6.574 0 016.567-6.566H32.12v8.434a1.313 1.313 0 001.839 1.203 5.192 5.192 0 012.101-.444z" fill="#1E959B"/><path d="M76.59 56.449l-11.04-7.603-4.24-11.33a1.313 1.313 0 00-1.762-.743l-8.536 3.776a1.313 1.313 0 00-.696 1.67c.141.368.274.646.415.935.14.29.27.56.429.987a5.286 5.286 0 01-3.072 6.793 5.253 5.253 0 01-7.085-5.215 1.313 1.313 0 00-1.776-1.297l-9.125 3.437a1.313 1.313 0 00-.767 1.688l3.276 8.751c-.434.08-.86.197-1.274.352a7.897 7.897 0 106.73 14.225l2.349 6.272a1.313 1.313 0 001.69.77l.003-.002 13.012-4.902a7.052 7.052 0 004.16 3.714l.83-2.496a4.428 4.428 0 01-2.512-2.145l3.96-1.491a9.166 9.166 0 008.648 6.095v-2.627a6.607 6.607 0 01-6.567-6.566c0-.349-.138-.683-.384-.929l-4.573-4.573a1.948 1.948 0 01-.18-2.533 1.912 1.912 0 011.412-.77 1.883 1.883 0 011.507.564l9.17 9.17 1.857-1.858-2.713-2.713a9.161 9.161 0 00-.117-6.14l-2.462-6.573 7.937 5.465a3.948 3.948 0 011.68 3.228v16.964H79.4V61.835a6.578 6.578 0 00-2.809-5.386zm-9.432 4.187c.363.964.494 2 .383 3.024l-4.263-4.26a4.564 4.564 0 10-6.453 6.453l4.154 4.154-18.56 6.991-2.503-6.689a1.313 1.313 0 00-2.149-.478 5.253 5.253 0 11-5.5-8.719 5.053 5.053 0 011.299-.294c.273-.034.548-.043.823-.028a1.313 1.313 0 001.3-1.771l-3.431-9.16 6.254-2.354a7.88 7.88 0 0010.506 5.891 7.914 7.914 0 004.606-10.17c-.12-.323-.23-.58-.335-.808l6.041-2.675 7.828 20.894z" fill="#1E959B"/></svg>