<svg width="80" height="80" fill="none" xmlns="http://www.w3.org/2000/svg"><path d="M32.27 37.533a1.562 1.562 0 01-1.562-1.563v-3.284h-1.886c-1.77 0-3.21-1.44-3.21-3.21V12.383c0-1.77 1.44-3.21 3.21-3.21H76.79c1.77 0 3.211 1.44 3.211 3.21v17.093c0 1.77-1.44 3.21-3.21 3.21H39.253l-6.046 4.535a1.563 1.563 0 01-.938.312zm-3.447-25.236a.086.086 0 00-.087.086v17.093c0 .047.039.086.086.086h3.448c.863 0 1.563.7 1.563 1.562v1.722l3.963-2.972c.27-.203.6-.313.937-.313h38.056a.086.086 0 00.086-.085V12.383a.086.086 0 00-.086-.086H28.823z" fill="#1E959B"/><path d="M68.795 18.352H36.817a1.563 1.563 0 010-3.125h31.978a1.563 1.563 0 010 3.125zm0 7.345h-5.628a1.563 1.563 0 010-3.125h5.628a1.563 1.563 0 010 3.125zm-13.439 0a1.578 1.578 0 01-1.471-1.037 1.574 1.574 0 01.46-1.716 1.578 1.578 0 011.835-.136c.546.339.834 1.001.707 1.631a1.578 1.578 0 01-1.531 1.258zm-7.657 0H36.817a1.563 1.563 0 010-3.125H47.7a1.563 1.563 0 010 3.125zm-36.019-5.98c-5.436 0-9.859-4.422-9.859-9.858C1.821 4.423 6.244 0 11.68 0s9.859 4.423 9.859 9.859-4.423 9.858-9.859 9.858zm0-16.592a6.741 6.741 0 00-6.734 6.734 6.741 6.741 0 006.734 6.734 6.741 6.741 0 006.734-6.734 6.741 6.741 0 00-6.734-6.734zm10.118 34.408H1.563C.7 37.533 0 36.833 0 35.97V25.666a4.333 4.333 0 014.328-4.328h14.704a4.333 4.333 0 014.328 4.328V35.97c0 .863-.7 1.563-1.562 1.563zM3.125 34.408h17.11v-8.742c0-.663-.54-1.203-1.203-1.203H4.328c-.663 0-1.203.54-1.203 1.203v8.742zM47.73 80c-.332 0-.662-.106-.937-.312l-6.047-4.534H3.211A3.214 3.214 0 010 71.943V54.851a3.215 3.215 0 013.211-3.212h47.967c1.77 0 3.21 1.441 3.21 3.212v17.092c0 1.77-1.44 3.21-3.21 3.21h-1.886v3.284A1.563 1.563 0 0147.73 80zM3.211 54.764a.086.086 0 00-.086.087v17.092c0 .047.038.086.086.086h38.056c.338 0 .667.11.937.312l3.963 2.972v-1.722c0-.863.7-1.562 1.563-1.562h3.448a.086.086 0 00.086-.086V54.851a.086.086 0 00-.087-.087H3.212z" fill="#1E959B"/><path d="M43.184 60.82H11.206a1.563 1.563 0 010-3.126h31.978a1.563 1.563 0 010 3.125zm-26.351 7.344h-5.628a1.563 1.563 0 010-3.125h5.628a1.563 1.563 0 010 3.125zm7.812 0a1.576 1.576 0 01-1.47-1.037 1.574 1.574 0 01.472-1.727 1.578 1.578 0 011.735-.176c.575.306.904.962.81 1.607a1.58 1.58 0 01-1.547 1.333zm18.538 0H32.302a1.563 1.563 0 010-3.125h10.881a1.563 1.563 0 010 3.125zm25.137-5.98c-5.436 0-9.86-4.422-9.86-9.858 0-5.436 4.424-9.859 9.86-9.859 5.436 0 9.859 4.423 9.859 9.859s-4.423 9.858-9.86 9.858zm0-16.592a6.741 6.741 0 00-6.734 6.734 6.741 6.741 0 006.734 6.734 6.741 6.741 0 006.734-6.734 6.741 6.741 0 00-6.734-6.734zM78.437 80H58.202c-.863 0-1.562-.7-1.562-1.563V68.133a4.333 4.333 0 014.328-4.328H75.67A4.333 4.333 0 0180 68.133v10.305C80 79.3 79.3 80 78.437 80zm-18.672-3.125h17.11v-8.742c0-.663-.54-1.203-1.204-1.203H60.968c-.664 0-1.203.54-1.203 1.203v8.742z" fill="#1E959B"/></svg>