<svg width="47" height="35" fill="none" xmlns="http://www.w3.org/2000/svg"><g clip-path="url(#clip0_120_1387)" fill="#1E959B"><path d="M29.894 17.956l13.216 8.355V9.248l-13.216 8.708zM3.907 9.248v17.063l13.216-8.355L3.907 9.248zM40.66 4.28H6.356c-1.223 0-2.193.91-2.377 2.084L23.508 19.23 43.036 6.364c-.184-1.173-1.154-2.085-2.377-2.085zM27.649 19.436l-3.467 2.284a1.224 1.224 0 01-1.348 0l-3.467-2.287-15.382 9.73c.189 1.164 1.154 2.068 2.372 2.068H40.66c1.218 0 2.183-.904 2.372-2.068L27.65 19.436z"/></g><defs><clipPath id="clip0_120_1387"><path fill="#fff" d="M0 0h46.29v35H0z"/></clipPath></defs></svg>