<svg width="239" height="58" fill="none" xmlns="http://www.w3.org/2000/svg"><path d="M212.01 57.201h-.186l-73.943-5.358-90.928 4.183-.093-.047L1.49 28.295l.697-.329L63.612 1.363h.047l70.732 4.136 82.226-2.35.14.141 20.987 25.052-.233.282-25.501 28.577zm-74.082-6.157l73.757 5.358 25.035-28.06-20.429-24.347-81.9 2.35L63.752 2.21 3.211 28.436l43.928 26.79 90.789-4.182z" fill="url(#paint0_linear_120_1226)"/><path d="M212.336 57.53l-.698-.47-25.222-16.592-47.791 11.093.419.282-.791-.141v.329l-.419-.282-.139.094v-.094l-1.489.329.837-.47-63.38-10.81L46.441 56.26l.28-.8 5.676-18.283L.372 28.342l57.796-9.823 5.351-17.25.372.235L83.017 14.29l50.49-8.602-.745-.517 1.303.282v-.094l.233.141.325-.188v.235l1.071-.188-.466.282 67.568 9.4h.047l.186.048L216.477 3.15l.466.517-12.937 11.469h.419l-.466.281 33.366 12.644.186.047.372.141.512.094-.14.047.093.047-1.07.282-29.596 6.862 4.654 21.95zM187.3 40.327l24.012 15.793-4.281-20.399-19.731 4.606zM53.049 37.32l-5.445 17.579 24.99-14.242-19.545-3.337zm81.714-30.74l3.444 44.323 34.761-19.224L134.763 6.58zM74.594 40.327l61.798 10.529L99.49 26.133 74.594 40.327zm25.548-14.57l37.367 25.005-3.444-44.323-33.923 19.318zm73.477 6.345l-33.411 18.472 45.464-10.576-12.053-7.896zm-120.384 4.56l20.289 3.477 25.315-14.43L82.83 14.994l-24.152 4.09-5.444 17.578zm121.036-4.936l12.285 8.037 20.382-4.747-2.839-13.583-8.004-1.74-21.824 12.033zM4.374 28.342l48.21 8.225 5.351-17.343-53.561 9.118zm200.377-6.721l2.792 13.301 28.106-6.533-30.898-6.768zM136.066 6.627l37.553 24.676 21.406-11.797-58.959-12.879zm68.545 14.242l28.2 6.157-29.27-11.092 1.07 4.935zM83.808 14.852l15.729 10.529 33.039-18.8-48.768 8.271zm113.125 4.372l6.98 1.504-1.024-4.794-5.956 3.29zm-53.98-11.798l52.956 11.563 6.143-3.385-3.956-.563-55.143-7.615zM63.891 2.303l-4.979 16.075L82.04 14.43 63.89 2.303z" fill="url(#paint1_linear_120_1226)"/><path d="M134.391 7.097a1.17 1.17 0 001.163-1.175 1.17 1.17 0 00-1.163-1.175c-.643 0-1.163.526-1.163 1.175 0 .65.52 1.175 1.163 1.175zM47.047 57.389c.976 0 1.768-.8 1.768-1.786s-.792-1.786-1.768-1.786c-.977 0-1.769.8-1.769 1.786s.792 1.786 1.769 1.786zM211.824 58a1.17 1.17 0 001.164-1.175 1.17 1.17 0 00-1.164-1.175 1.17 1.17 0 00-1.163 1.175A1.17 1.17 0 00211.824 58zm25.408-27.872c.977 0 1.768-.8 1.768-1.786s-.791-1.786-1.768-1.786c-.976 0-1.768.8-1.768 1.786s.792 1.786 1.768 1.786zM216.478 5.687a2.105 2.105 0 002.094-2.115 2.105 2.105 0 00-2.094-2.115 2.104 2.104 0 00-2.094 2.115c0 1.168.937 2.115 2.094 2.115zm-78.55 48.177c1.311 0 2.373-1.073 2.373-2.397 0-1.324-1.062-2.397-2.373-2.397-1.311 0-2.373 1.073-2.373 2.397 0 1.324 1.062 2.397 2.373 2.397zM2.373 30.74c1.311 0 2.373-1.074 2.373-2.398s-1.062-2.397-2.373-2.397C1.063 25.945 0 27.018 0 28.342c0 1.324 1.063 2.397 2.373 2.397zM63.706 3.572c.976 0 1.768-.8 1.768-1.786S64.682 0 63.706 0c-.977 0-1.769.8-1.769 1.786s.792 1.786 1.769 1.786zM32.109 15.37c1.628.752 2.838 1.786 3.722 3.149.884 1.363 1.303 2.96 1.303 4.794 0 1.833-.419 3.43-1.303 4.794-.884 1.363-2.094 2.397-3.722 3.149-1.63.705-3.49 1.081-5.678 1.081h-5.025V39.2h-5.677V14.29h10.656c2.187 0 4.095.329 5.724 1.08zm-2.095 11.139c.885-.752 1.35-1.786 1.35-3.196 0-1.41-.465-2.491-1.35-3.243-.884-.752-2.187-1.128-3.908-1.128h-4.654v8.648h4.654c1.675.047 2.978-.33 3.909-1.081zm20.29 7.191h-3.398v5.5h-5.584V18.706h9.214c2.792 0 5.026.658 6.655 2.02 1.628 1.364 2.466 3.197 2.466 5.547 0 1.504-.372 2.773-1.07 3.901-.698 1.081-1.722 1.974-3.025 2.585l4.514 6.44h-6.003l-3.77-5.5zm2.791-9.776c-.65-.564-1.628-.8-2.931-.8h-3.258v6.346h3.258c1.303 0 2.28-.282 2.931-.799.652-.564.978-1.316.978-2.35 0-1.081-.326-1.88-.977-2.397zM68.08 38.212a9.908 9.908 0 01-4.049-3.807c-.977-1.598-1.489-3.431-1.489-5.452s.512-3.854 1.49-5.452a9.907 9.907 0 014.048-3.807c1.721-.893 3.676-1.363 5.816-1.363 2.14 0 4.095.47 5.817 1.363 1.675.846 3.071 2.209 4.049 3.807.977 1.645 1.489 3.43 1.489 5.452 0 2.021-.512 3.854-1.49 5.452a10.566 10.566 0 01-4.048 3.807c-1.722.893-3.676 1.363-5.817 1.363-2.14 0-4.095-.47-5.816-1.363zm8.794-3.995a5.36 5.36 0 002.048-2.162c.512-.94.745-2.021.745-3.102 0-1.175-.233-2.21-.745-3.102-.465-.893-1.21-1.645-2.047-2.162a5.93 5.93 0 00-5.864 0c-.884.517-1.582 1.269-2.094 2.162-.512.893-.744 1.974-.744 3.102 0 1.081.232 2.115.744 3.102.465.893 1.21 1.645 2.094 2.162 1.769 1.034 4.002 1.034 5.864 0zm12.379-15.51h9.54c2.279 0 4.327.423 6.049 1.222a9.396 9.396 0 014.048 3.572c.931 1.55 1.443 3.337 1.443 5.452 0 2.068-.466 3.854-1.443 5.405-.931 1.551-2.28 2.726-4.048 3.572-1.722.846-3.77 1.27-6.05 1.27h-9.54V18.706zm9.353 16.074c1.861 0 3.351-.517 4.421-1.504 1.07-.987 1.628-2.444 1.628-4.277 0-1.833-.558-3.29-1.628-4.324-1.07-1.034-2.56-1.551-4.421-1.551H94.79V34.78h3.816zm18.009 2.35c-1.675-1.645-2.513-3.9-2.513-6.768V18.707h5.584v11.468c0 1.598.326 2.773 1.024 3.572.698.8 1.722 1.222 3.071 1.222 1.303 0 2.327-.423 2.978-1.222.698-.799 1.024-2.02 1.024-3.572V18.707h5.491v11.656c0 2.867-.838 5.123-2.513 6.768-1.675 1.645-4.048 2.444-7.073 2.444-3.025 0-5.398-.799-7.073-2.444zm25.873 1.081a9.916 9.916 0 01-4.049-3.807c-.977-1.598-1.489-3.431-1.489-5.452s.512-3.854 1.489-5.452a10.574 10.574 0 014.049-3.807c1.722-.893 3.63-1.363 5.77-1.363 1.955 0 3.63.282 5.072.893 1.443.61 2.653 1.55 3.677 2.867l-3.584 3.29c-1.349-1.645-2.978-2.444-4.932-2.444-1.722 0-3.118.564-4.235 1.692-1.117 1.128-1.675 2.585-1.675 4.371 0 1.175.233 2.256.744 3.15a5.074 5.074 0 002.095 2.114c.93.517 2 .752 3.071.752 1.954 0 3.583-.799 4.932-2.444l3.584 3.29a9.04 9.04 0 01-3.677 2.82c-1.442.611-3.117.893-5.072.893-2.094 0-4.048-.47-5.77-1.363zm21.824-15.134h-6.375v-4.371h18.335v4.37h-6.375v16.075h-5.585V23.078zm18.754-6.534v9.777h12.75v2.256h-12.75v10.575h-2.606v-24.91h16.892v2.255l-14.286.047zm19.079 2.539h2.513v20.116h-2.513V19.083zm13.402 2.115h-7.027v-2.115h16.566v2.115h-7.026v18.001h-2.513V21.198zm-13.728-6.252c-.419.893 0 1.975.884 2.35.884.424 1.955 0 2.327-.892.419-.893 0-1.974-.884-2.35-.884-.424-1.955-.047-2.327.893z" fill="#1E959B"/><defs><linearGradient id="paint0_linear_120_1226" x1="1.49" y1="29.301" x2="237.74" y2="29.301" gradientUnits="userSpaceOnUse"><stop stop-color="#AFDBDE"/><stop offset="1" stop-color="#C7E5E7"/></linearGradient><linearGradient id="paint1_linear_120_1226" x1=".349" y1="29.4" x2="238.374" y2="29.4" gradientUnits="userSpaceOnUse"><stop stop-color="#AFDBDE"/><stop offset="1" stop-color="#C7E5E7"/></linearGradient></defs></svg>