<svg width="175" height="54" fill="none" xmlns="http://www.w3.org/2000/svg"><path d="M170.348 30.483c-1.454 2.662-3.841 5.735-6.019 6.248a.968.968 0 01-.52.102c-.727.102-1.361-.204-1.973-.717-1.362-1.343-1.971-4.097-1.971-5.531.103-1.948.726-4.814 1.361-6.864.25-.805.558-1.592.92-2.356-1.247.616-2.907 1.23-4.356 1.344a5.531 5.531 0 01-1.361-.102 26.8 26.8 0 01-1.143 4.198c-2.074 5.43-5.605 10.141-7.786 10.55-1.14.206-2.801-1.228-3.424-3.788-1.454 2.149-3.321 4.298-5.189 4.505h-.106a4.57 4.57 0 01-2.01-.191 4.524 4.524 0 01-1.725-1.037c-1.247-1.343-1.764-3.586-1.764-6.557.724-6.963 8.51-12.494 13.388-12.803h.313c3.945-.102 4.565 2.149 4.671 2.767.104.921-.209 1.74-.816 1.944-.21 0-.624.205-1.144.412-1.14.51-2.594 1.023-3.424 1.125-.417 0-.623 0-.817-.204-.103 0-.207-.204-.207-.411-.106-.408.207-.806.724-1.537.314-.408 1.247-1.638 1.04-1.945a2.896 2.896 0 00-.83-.102c-.21 0-.416.102-.727.102-3.539.616-6.955 9.73-6.533 14.238.414 3.38 2.905.306 4.462-2.05a11.65 11.65 0 011.557-6.248c.416-.613 2.387-1.126 3.321-1.228a.632.632 0 01.416-.102c.311 0 .624-.102.934-.102a1.181 1.181 0 011.141.306c.209.204.209.513.106.922-1.247 3.277-2.701 8.196-2.597 9.321 1.04-.806 4.464-6.554 6.228-13.112-.103-.306-.207-.612-.31-1.023-.417-2.458.727-4.097 1.764-4.916a7.628 7.628 0 011.247-.717l.103-.102c.414-.205 1.141-.514 1.661-.514.213-.015.427.02.623.103.817.513.817 1.434.817 1.743a8.172 8.172 0 01-1.454 3.994c0 .103-.103.103-.103.205h.103c.517 0 1.348-.31 1.868-.513a8.595 8.595 0 003.424-2.56l.21-.205c.256-.324.573-.598.933-.805a1.654 1.654 0 011.348-.207c.32.186.603.429.833.717l.103.102c.518.806.621 1.947.414 3.688-.103 1.343-.817 3.587-1.557 6.044-.817 2.867-1.661 5.838-1.764 7.272.727-.41 2.284-1.945 3.218-3.586 2.49-4.199 3.321-7.374 3.321-7.374a.275.275 0 01.035-.178.269.269 0 01.17-.124.276.276 0 01.108-.004 1 1 0 011.029.39c1.037 1.53-2.181 7.266-2.284 7.473z" fill="#fff"/><path d="M173.151 42.467c-1.87-2.87-6.533-3.176-8.409-3.176-.9-.011-1.8.023-2.697.102-4.258.306-10.072 1.23-16.298 2.15-7.059 1.125-14.428 2.253-20.447 2.662a56.846 56.846 0 01-4.233.177c-4.143 0-6.574-.637-7.29-1.816-.414-.717-.206-1.74.624-3.073a.348.348 0 00.103-.205 1.897 1.897 0 00-.31-1.536 1.48 1.48 0 00-1.144-.411c-1.66.105-4.048 2.254-4.151 3.997-.207 1.639.103 2.955.727 3.995l-.104.102c-.933 1.536-1.973 2.764-3.01 4.199-.207.306-.52.615-.727.921-.311.309-.414.513-.52.513-.207-.309-.517-1.74.727-8.706a197.01 197.01 0 016.021-25.3 19.572 19.572 0 004.356-1.343c.39-.151.771-.323 1.143-.513-1.87 7.067-4.464 18.232-1.037 22.433.934 1.228 2.385 1.74 4.151 1.639 2.856-.207 5.605-2.15 7.81-4.879a23.083 23.083 0 004.541-9.563c.313-1.434.207-3.688-1.141-5.123-.933-1.023-2.284-1.434-3.841-1.125-2.177.408-5.085 2.955-7.369 6.554 1.661-7.58 5.085-17.823 6.229-21.407.207-.513.31-.921.413-1.128.104-.409.207-.922 0-1.33a1.18 1.18 0 00-.827-.295 5.462 5.462 0 00-1.141.204 19.71 19.71 0 01-1.557.309c-2.178.306-2.387.819-2.804 1.945v.102c-1.14 3.28-1.557 4.61-1.971 6.447a13.828 13.828 0 01-.623 2.047c-.139.59-.313 1.172-.52 1.743-.414-.105-1.14 0-2.387 0-.834.025-1.665.093-2.491.204.83-2.458 1.66-4.916 2.594-7.272a.56.56 0 00-.103-.615c-.207-.309-.624-.207-.727-.207-.351.04-.698.109-1.037.207-.417.102-.934.204-1.454.307-.207 0-.414.102-.727.102-1.14.102-2.387.309-2.594 1.434-.417 2.05-.934 4.199-1.557 6.66a26.4 26.4 0 00-2.801.306c-1.664.204-2.178.615-2.494 1.227v.207c0 .51 0 .922.313 1.228.414.41 1.244.41 3.632.207h.62c-.31 1.33-.726 2.662-1.037 3.892l-2.178 8.596a35.309 35.309 0 01-3.114 4.406 15.03 15.03 0 01-1.14 1.343c-1.144 1.343-1.974 2.15-2.595 2.356-.623.102-.52-2.05-.313-3.277.417-2.15 1.557-4.712 2.284-6.35.52-1.435 1.037-2.563 1.14-3.587.314-2.149.21-3.586-.413-4.199-.416-.41-.934-.513-1.66-.309-.104 0-.314-.102-.417-.102-.934.102-2.594 1.344-4.356 2.971a29.6 29.6 0 00-1.246 1.024c-.934.309-1.244.309-1.454.309a.321.321 0 01.106-.207c.934-1.74.83-4.097.207-5.12a1.294 1.294 0 00-.425-.491 1.318 1.318 0 00-.612-.226c-.623 0-2.7.513-3.738 2.149-.727 1.125-.83 2.56-.207 4.198-1.66 7.272-5.398 13.52-6.533 14.442-.103-.51 0-1.843.313-2.866a1284.97 1284.97 0 002.284-8.4c.207-.806.414-1.435.414-1.537a3.361 3.361 0 00-.31-2.458c-.52-.921-1.558-1.947-4.152-1.947h-.313c-4.878.308-12.664 5.84-13.39 12.805v.102c0 .102-.621.922-.83 1.343-1.038 1.64-2.802 4.097-3.736 4.608h-.103c-.106 0-.21-.103-.313-.409-.207-.82.103-2.149.313-2.97.207-1.024.414-2.05.724-3.176.106-.408.21-.806.313-1.126.31-1.23.727-2.563.934-3.79.52-2.665.31-4.508-.417-5.43a2.09 2.09 0 00-1.45-.805c-1.661 0-4.465 1.639-7.06 5.225.208-1.846 0-3.178-.623-3.893a1.67 1.67 0 00-.633-.544 1.695 1.695 0 00-.82-.173c-1.348 0-3.322 1.126-5.189 3.073-1.247 1.228-2.49 3.492-3.539 5.531a143.78 143.78 0 011.454-4.61c.314-.92.522-1.535.623-1.845.076-.276.039-.57-.103-.82-.104-.203-.624-.805-3.218-.612h-.103c-1.66.102-2.699.41-3.114.922a1.15 1.15 0 00-.313.806c.103.921-.621 5.53-1.245 9.627-.52 3.176-.933 6.147-1.04 7.581 0 .51 0 .922.21 1.228.172.146.395.22.62.204a.619.619 0 00.417-.102h.104c1.247-.204 2.178-.51 2.7-.921.31-.307.414-.806.517-1.344.104-.486.243-.965.417-1.431.103-.207.103-.411.207-.514.207-.615 1.97-4.813 2.697-6.146l.21-.408c.62-1.128 1.244-2.356 1.868-3.382.52-.806 1.037-1.843 1.867-2.56.272-.186.544-.355.817-.513h.416c.31.41-.52 2.562-1.143 4.099-.517 1.432-1.14 2.955-1.451 4.505-1.04 4.298-1.04 6.146 0 6.966a1.74 1.74 0 001.14.41c1.362-.102 2.595-1.947 4.465-7.067.103-.204.103-.411.207-.615 2.178-4.61 4.355-8.91 5.915-9.013h.21c.207.51-.313 1.945-.83 3.175a28.204 28.204 0 00-1.23 3.898c-.52 2.251-1.248 6.246.31 8.295.28.391.655.708 1.09.923a3 3 0 001.4.308c3.22.102 5.295-3.586 6.332-6.248.105 1.944.624 3.377 1.557 4.298.489.47 1.079.825 1.726 1.038a4.59 4.59 0 002.012.195h.103c1.87-.207 3.738-2.356 5.192-4.508.62 2.56 2.283 3.995 3.424 3.79 2.178-.41 5.717-5.122 7.786-10.551a34.974 34.974 0 001.347-4.916 4 4 0 002.292.41c1.247-.102 2.804-.615 4.356-1.434-.52 1.023-.934 1.945-1.04 2.56-.724 2.05-1.451 4.916-1.451 6.864 0 1.343.62 3.994 2.074 5.327.727.717 1.557 1.023 2.388.921h.081a.992.992 0 00.439-.105c2.077-.513 4.254-2.767 6.018-5.122-.413 1.842-.724 3.586-1.037 5.428-1.037 5.736-.727 9.424.727 11.063.934 1.128 2.284 1.128 2.804 1.128h.207c2.698-.207 4.461-3.688 5.716-6.044a2.21 2.21 0 01.311-.513c0-.102.209-.306.313-.51 1.557 1.125 3.944 1.638 7.059 1.431a1.81 1.81 0 00.726-.102c9.34-.921 15.672-1.843 23.139-2.866a462.068 462.068 0 0111.001-1.537 19.293 19.293 0 013.408-.306c6.019-.408 13.494.207 14.945 5.942v.102c.106.409.313 1.024.816.922.417 0 .624-.409.937-1.126.103-.102.103-.309.207-.411.958-2.662.958-4.814-.183-6.452zM119.799 30.8c1.037-1.945 1.971-3.689 3.008-5.12 2.284-3.28 3.324-3.689 3.634-3.689a.387.387 0 01.31.102c.417.411.52 1.639.313 3.073-.313 2.254-1.764 6.045-3.321 8.809a9.315 9.315 0 01-2.077 2.767c-1.557 1.33-1.971.306-2.077-1.537-.103-1.037 0-2.366.21-4.405zm-42.467-5.43c-.207.31-.414.807-.724 1.344a8.334 8.334 0 00-.727 1.343 24.868 24.868 0 00-1.143 3.277c-.31 1.024-.934 3.995-.934 5.531-.816 1.024-1.66 2.459-2.907 3.074-1.764.921-1.244-3.79-1.14-4.61.726-4.814 3.538-10.243 6.228-10.745.196-.084.41-.119.623-.102.517-.103.724 0 .83.204.115.059.115.266-.095.674l-.01.01zM36.137 12.557c-.302 4.005-2.907 6.554-8.197 8.502-.206 0-.413 0-.517-.207a.45.45 0 010-.51c2.388-2.665 2.801-4.406 3.115-5.942.517-2.662-.104-3.686-1.04-4.403-.934-.615-2.388-.82-4.462-.717h-.207c-.106 0-6.955.615-7.894 6.758-.624 3.893 1.14 5.021 4.565 7.068a33.921 33.921 0 014.048 2.665c5.814 4.199 7.578 7.272 6.438 11.266-1.361 4.712-6.534 10.447-16.712 11.267h-.313c-7.473.513-11.003-2.047-12.454-3.686C1.056 42.98.43 40.828.847 38.88c1.66-7.68 8.925-8.808 11.103-8.91h.83c.21 0 .417.102.417.306a.407.407 0 01-.207.41c-.103.103-6.021 3.791-5.815 9.94.107 1.843.52 3.073 1.454 3.893 1.143 1.024 3.22 1.433 6.229 1.227h.31c7.162-.615 10.889-5.429 10.796-9.627-.092-4.2-4.557-6.663-8.096-8.71l-.52-.308c-3.424-2.047-7.374-4.916-7.058-10.345.313-5.12 6.762-9.424 15.364-10.345 5.085-.514 7.68.92 8.926 2.149a5.083 5.083 0 011.225 1.829c.27.69.383 1.43.332 2.168zm106.185.921c-5.812-3.277.206-7.58.206-7.58 2.077-1.424 3.841 9.936-.206 7.58z" fill="#fff"/><path d="M154.988 7.429a7.42 7.42 0 01-3.011 4.835c-1.454 1.024-5.189 1.639-5.812 1.228-.416-.205-.313-.616 0-1.126a5.33 5.33 0 01-1.361.204s-.623-5.442 4.162-8.515c1.87-.616 2.284 2.356 1.04 4.916 2.594-1.639 5.189-2.458 4.982-1.542z" fill="#fff"/></svg>