<svg width="260" height="40" fill="none" xmlns="http://www.w3.org/2000/svg"><g clip-path="url(#clip0_120_1510)" fill="#fff"><path d="M76.574.845l4.839 10.919 4.809-10.8h4.425l4.8 10.8L100.27.845h4.838L97.866 17.16h-4.441l-4.99-10.79-4.99 10.79h-4.439L71.752.845h4.822zm54.903 0a5.313 5.313 0 013.716 1.394 4.355 4.355 0 011.526 3.38v6.774a4.346 4.346 0 01-1.523 3.37 5.308 5.308 0 01-3.716 1.394h-12.77c-1.37.03-2.7-.47-3.713-1.393a4.403 4.403 0 01-1.512-3.371V5.619a4.4 4.4 0 011.522-3.37A5.337 5.337 0 01118.71.844h12.767zm-12.931 4.193a1.697 1.697 0 00-.607 1.346v5.241a1.817 1.817 0 00.607 1.358 2.22 2.22 0 001.49.545h10.135a2.325 2.325 0 001.49-.558 1.796 1.796 0 00.606-1.345V6.38a1.724 1.724 0 00-.606-1.354 1.938 1.938 0 00-1.49-.549h-10.135a2.051 2.051 0 00-1.49.558v.003zM163.695.845a5.308 5.308 0 013.722 1.394 4.35 4.35 0 011.519 3.38v6.774a4.35 4.35 0 01-1.519 3.374 5.305 5.305 0 01-3.716 1.393h-12.76a5.334 5.334 0 01-3.716-1.393 4.408 4.408 0 01-1.523-3.374V5.619a4.4 4.4 0 011.523-3.37 5.337 5.337 0 013.716-1.394l12.754-.01zM150.763 5.04a1.706 1.706 0 00-.606 1.345v5.241a1.801 1.801 0 00.606 1.358c.413.36.944.553 1.491.545h10.131a2.32 2.32 0 001.487-.558 1.783 1.783 0 00.607-1.345V6.38a1.74 1.74 0 00-.607-1.354 1.929 1.929 0 00-1.487-.549h-10.128a2.044 2.044 0 00-1.494.558v.004zM199.269.845v3.632h-8.454v12.68h-4.455V4.477h-8.441V.845h21.35zm29.112 0v3.632h-15.683v2.668h13.599v3.57h-13.599v2.81h15.683v3.632h-20.138V.845h20.138zm24.997 0a5.804 5.804 0 014.048 1.526 4.787 4.787 0 011.681 3.68 4.742 4.742 0 01-1.451 3.455 5.982 5.982 0 01-3.623 1.68l5.313 5.974h-5.181l-4.906-5.919h-7.444v5.92h-4.452V.844h16.015zm-11.563 6.8h11.134a1.713 1.713 0 001.252-.455 1.46 1.46 0 00.487-1.142 1.395 1.395 0 00-.487-1.142 1.567 1.567 0 00-1.252-.438h-11.134v3.177zM81.761 24.74l-.058-.09h-.848l-.042.065-9.061 14.305h.948l2.23-3.5h12.737l2.203 3.5h.968L81.76 24.74zm-6.419 10.126l5.951-9.393 5.935 9.39-11.886.003zm24.901 4.154V24.65h14.096a4.968 4.968 0 012.4.574c.694.35 1.28.88 1.697 1.536.393.604.6 1.31.593 2.032 0 .732-.197 1.906-.6 2.535a4.245 4.245 0 01-1.68 1.526 5.05 5.05 0 01-2.407.568H101.23v5.602l-.987-.003zm.99-6.257h12.745c.967-.036 2.329-.346 2.99-.916l.035-.033c.717-.645 1.094-2.038 1.094-3.022a3.262 3.262 0 00-1.103-2.522c-.665-.617-2.045-.94-3.032-.94H101.23l.003 7.433zm27.354 6.257V24.65h14.096a4.97 4.97 0 012.4.574c.693.35 1.279.88 1.696 1.536.394.604.601 1.31.594 2.032 0 .732-.197 1.906-.6 2.535a4.247 4.247 0 01-1.681 1.526 5.043 5.043 0 01-2.406.568h-13.112v5.602l-.987-.003zm.99-6.257h12.745c.967-.036 2.328-.346 2.99-.916l.035-.033c.716-.645 1.094-2.038 1.094-3.022a3.26 3.26 0 00-1.107-2.523c-.664-.616-2.045-.938-3.032-.938h-12.728l.003 7.432zm37.213-8.023l-.058-.09h-.848l-.042.065-9.071 14.305h.968l2.229-3.5h12.738l2.203 3.5h.968l-9.087-14.28zm-6.419 10.126l5.952-9.39 5.931 9.386-11.883.004zm43.095-8.106a4.31 4.31 0 00-1.697-1.536 4.968 4.968 0 00-2.4-.574h-14.096v14.37h.991v-5.603h10.67l4.545 5.603h.99l-4.545-5.603h1.445a5.052 5.052 0 002.407-.567 4.246 4.246 0 001.68-1.526c.403-.626.6-1.8.6-2.535a3.66 3.66 0 00-.59-2.03zm-1.429 5.051l-.036.032c-.661.571-2.009.88-2.99.916h-12.747V25.34h12.728c.984 0 2.368.323 3.032.94a3.262 3.262 0 011.106 2.521c-.003.971-.38 2.349-1.093 3.01zm29.305-7.161v.732h-15.677v6.042h13.583v.668h-13.583v6.196h15.677v.732h-16.667V24.65h16.667zm11.338 0v14.37h16.666v-.732H243.67V24.65h-.99zM61.323 6.637C56.967 1.952 50.108.034 43.89 1.305c-4.147.754-7.754 3.205-10.744 6.092a182.7 182.7 0 00-5.134 5.032c-2.303 2.343-4.607 4.84-5.299 6.07-1.276 2.65 1.867 5.929 4.539 4.579 2.751-1.617 4.635-4.3 6.96-6.422 3.257-3.024 6.008-7.018 10.427-8.402 6.513-1.883 13.825 3.013 14.801 9.644 1.305 6.927-4.896 14.115-11.947 13.757-3.466 0-6.547-1.85-8.901-4.266a198.72 198.72 0 01-5.134 5.032c2.638 2.513 5.673 4.692 9.236 5.701 7.374 1.867 15.838-.88 20.337-7.108C68.364 23.9 67.57 12.99 61.323 6.637z"/><path d="M39.335 16.775c-2.752 1.617-4.635 4.3-6.96 6.421-3.257 3.024-5.991 7.018-10.428 8.402-6.512 1.883-13.825-3.013-14.8-9.644C5.842 15.027 12.042 7.84 19.094 8.197c3.466 0 6.546 1.85 8.9 4.266a198.576 198.576 0 015.135-5.032C30.49 4.918 27.456 2.74 23.893 1.73 16.518-.136 8.054 2.61 3.556 8.838-1.817 15.98-.983 26.895 5.257 33.232c4.357 4.686 11.216 6.603 17.433 5.332 4.153-.754 7.755-3.205 10.745-6.092a182.7 182.7 0 005.134-5.032c2.303-2.343 4.606-4.84 5.293-6.07 1.282-2.667-1.86-5.946-4.527-4.596z"/></g><defs><clipPath id="clip0_120_1510"><path fill="#fff" transform="translate(0 .807)" d="M0 0h259.346v38.254H0z"/></clipPath></defs></svg>