<svg width="198" height="14" fill="none" xmlns="http://www.w3.org/2000/svg"><path fill-rule="evenodd" clip-rule="evenodd" d="M7.828 13.343c-3.44 0-7.986-.916-6.73-4.866L3.574.687h4.13L5.4 7.907c-.496 1.568.588 2.564 3.339 2.564 2.774 0 4.477-1.01 4.975-2.564L16.01.687h4.101l-2.477 7.79c-1.233 3.894-6.284 4.866-9.806 4.866zm25.098-8.717c-.28.882-1.001 1.197-1.604 1.197h-6.551l.714-2.259h6.468c.782 0 1.2.372.973 1.062zm.793-3.939H22.277L18.32 13.129h4.127l1.406-4.431h3.109l2.268 4.431h5.403l-2.9-4.86h.745c1.885 0 3.796-1.597 4.505-3.838.83-2.579-.863-3.744-3.263-3.744zm10.265 7.558l3.764-4.254 1.047 4.254h-4.81zm6.977-7.65h-4.173L34.664 13.128h5.063l1.978-2.247h7.709l.54 2.247h5.14L50.961.594zm4.987 12.534L59.908.687h4.117l-2.998 9.417H72.08l-1.986 3.025H55.948zm22.77-3.656h9.114l-1.978-8.05-7.136 8.05zm107.529 3.645c-2.534 0-4.719-.24-6.514-.715l.8-1.2c1.315.432 3.396 1.044 6.686 1.044 2.567 0 6.495-.732 7.181-2.73.571-1.666-3.144-1.799-6.096-2.027-2.627-.214-5.561-.28-6.38-1.661-.07-.12-.303-.47.018-1.492.69-2.19 4.772-3.719 9.927-3.719 2.373 0 4.619.237 6.131.635l-.756 1.199c-1.545-.593-3.87-.943-6.332-.943-2.856 0-6.994.671-7.545 2.403-.15.466-.163.812.076 1.201.579.941 3.339.767 6.138.822 2.945.06 6.26.193 6.777 1.58.046.124.314.621-.001 1.618-.971 3.072-6.066 3.985-10.11 3.985zm-24.029-.208L166.116.72h13.595l-.287.908h-12.245l-1.353 4.25h12.258l-.289.913h-12.251l-1.656 5.212h12.244l-.289.906h-13.625zm-21.95 0L144.172.594l12.486 10.277 3.267-10.15h1.433l-3.929 12.324L144.823 2.55l-3.109 10.338-1.446.022zm-21.838 0L122.305.72h1.433l-3.455 10.867h11.4l-.425 1.323H118.43zm-15.165-6.268h8.869c1.298 0 2.893-.83 3.295-2.117.278-.896 1.006-2.624-2.582-2.624h-8.091l-1.491 4.741zm7.107 6.267l-2.578-5.1h-4.889l-1.605 5.1h-1.457L103.67.73h10.475c1.292 0 2.215.261 2.625.853.311.449.774 1.357.503 2.217-.656 2.1-2.314 3.792-4.022 3.792h-4.079l3.24 5.31-2.04.007zm23.593 0L137.823.722h1.54l-3.868 12.189h-1.53zm-40.899 0L96.943.722h1.54L94.594 12.91h-1.529zm-4.434 0l-.62-2.552H78.001l-2.249 2.553h-1.879L84.68.737 87.167.72l3.14 12.16-1.675.029z" fill="#fff"/></svg>