<svg width="140" height="55" fill="none" xmlns="http://www.w3.org/2000/svg"><path d="M73.766 16.363c-3.052-2.447-7.118-3.983-12.269-3.983-10.878 0-19.702 9.414-19.702 21.023s8.824 21.034 19.703 21.034c5.159 0 9.216-1.534 12.268-3.984v3.215h10.578V13.124H73.766v3.24zM63.09 44.697c-5.922 0-10.716-5.051-10.716-11.292 0-6.24 4.794-11.283 10.716-11.283a11.288 11.288 0 010 22.575zm63.501 8.98h10.577V21.144h-10.577v32.533zm-2.067-43.008a7.355 7.355 0 0014.709 0c0-5.628-4.574-9.552-11.194-9.685-7.691-.144-17.395 4.032-21.739 16.877v-4.737H95.73v40.553h10.573V30.103c0-15.184 8.663-27.511 21.673-27.38 1.207.02 2.404.218 3.552.59a7.361 7.361 0 00-7.001 7.356h-.002zm-81.656 2.455H27.93l-16.562 15.71V1.439H.79v52.238h10.578V38.91L27.93 53.677h14.858L21.024 33.444l21.845-20.32z" fill="#fff"/><path d="M22.302 5.533h2.556V4.369h-2.556V2.603h2.855V1.44h-4.101v7.095h4.208V7.37h-2.962V5.533zm7.99 1.947c-1.448 0-2.451-1.013-2.451-2.494 0-1.54.991-2.493 2.31-2.493a2.696 2.696 0 011.607.475l.558-.918a3.233 3.233 0 00-2.16-.719c-2.343 0-3.631 1.621-3.631 3.66 0 2.211 1.492 3.66 3.66 3.66.918 0 1.837-.324 2.273-.801l-.477-.933a2.755 2.755 0 01-1.688.563zm4.823-4.622c-.315 4.278-1.036 4.512-1.582 4.44l-.03 1.236c1.398.204 2.321-.46 2.737-4.592l.142-1.339h2.067v5.93h1.237V1.44h-4.475l-.096 1.419zm7.95 3.632V1.44h-1.248v7.095h1.095l3.715-5.028v5.028h1.247V1.439h-1.095L43.066 6.49zm13.727-5.159c-2.18 0-3.69 1.607-3.69 3.66 0 2.211 1.582 3.66 3.69 3.66 2.108 0 3.701-1.531 3.701-3.66-.007-2.216-1.598-3.664-3.708-3.664l.007.004zm0 6.154c-1.327 0-2.372-1.075-2.372-2.494 0-1.47 1.015-2.493 2.372-2.493s2.383 1.024 2.383 2.493c-.007 1.394-.9 2.489-2.39 2.489l.007.005zm7.497-3.36a8.072 8.072 0 00-.953.06V2.603h2.9V1.44h-4.147v7.095c.416 0 1.024.041 1.837.041 1.743 0 2.737-.84 2.737-2.312.009-1.306-.893-2.138-2.374-2.138zm-.163 3.284c-.262 0-.506-.019-.79-.04V5.343c.282-.037.567-.057.852-.06.872 0 1.246.46 1.246 1.064 0 .604-.385 1.063-1.308 1.063zm7.168-1.837l-2.393-4.133h-1.497l3.227 5.382-.866 1.736h1.327l3.55-7.118h-1.33l-2.018 4.133zm7.777-.78V4.77a1.665 1.665 0 001.015-1.608c0-.982-.639-1.754-2.333-1.754-.71 0-1.651.032-2.048.05v7.066c.415.03 1.33.05 1.977.05 1.501 0 2.638-.668 2.638-2.128a1.585 1.585 0 00-1.25-1.653V4.79zM76.95 2.6c.23-.02.499-.03.784-.03.668 0 1.113.305 1.113.882 0 .65-.475.943-1.054.943h-.843V2.601zm.823 4.808c-.275 0-.55-.018-.823-.05V5.481h.885c.78 0 1.235.306 1.235.903 0 .67-.455 1.024-1.297 1.024zm6.408-3.589a6.917 6.917 0 00-.81.05V1.44h-1.25v7.095c.418 0 1.116.02 1.796.02 1.887 0 2.941-.94 2.941-2.442 0-1.39-.843-2.292-2.677-2.292zm-.122 3.57c-.243 0-.459-.02-.689-.032v-2.32c.283-.03.526-.05.71-.05.872 0 1.46.355 1.46 1.148.002.879-.57 1.255-1.48 1.255zm4.468-.243a.71.71 0 00-.78.74.6.6 0 00.516.647c.083 0 .205 0 .264-.08a.675.675 0 01-.09.459.967.967 0 01-.62.537l.315.549a1.708 1.708 0 001.289-1.725c.002-.652-.343-1.127-.894-1.127zm3.954-4.544h2.296v5.93h1.247v-5.93h2.296V1.44h-5.837l-.002 1.164zm9.938-1.276c-2.179 0-3.69 1.607-3.69 3.66 0 2.21 1.582 3.66 3.69 3.66 2.108 0 3.701-1.532 3.701-3.66.002-2.212-1.591-3.66-3.699-3.66h-.002zm0 6.153c-1.33 0-2.372-1.075-2.372-2.494 0-1.469 1.012-2.493 2.372-2.493 1.359 0 2.383 1.024 2.383 2.493.002 1.399-.891 2.494-2.381 2.494h-.002z" fill="#fff"/></svg>