<svg width="160" height="54" fill="none" xmlns="http://www.w3.org/2000/svg"><g clip-path="url(#clip0_120_1497)"><path d="M119.217 32.9h4.176V11.703l-4.176.373V32.9zm2.075-29.815a2.847 2.847 0 00-2.846 2.9 2.845 2.845 0 005.692 0c-.027-1.596-1.277-2.9-2.846-2.9zm33.963 8.618l-6.011 13.963-6.409-13.963h-8.325V9.868c0-2.18 1.011-3.085 3.085-3.085a9.056 9.056 0 012.128.292l.931-3.324a12.486 12.486 0 00-4.097-.638c-4.043 0-6.223 2.633-6.223 6.463v2.127l-3.564.293v3.352h3.564V32.9h4.175V15.32h5.453l7.233 15.08c-.611 1.33-1.356 2.82-2.526 3.724-1.038.824-2.367.904-3.644.638l-.984 3.431c1.888.692 4.255.612 6.011-.346 1.914-1.063 3.19-3.058 4.042-5.026l9.576-21.198h-4.441v.08h.026zm-49.868 18.032c-3.484-.026-6.41-2.899-6.41-7.447 0-4.574 2.9-7.42 6.41-7.473 3.484.027 6.41 2.899 6.41 7.473 0 4.548-2.926 7.447-6.41 7.447zm0-18.617a9.037 9.037 0 00-6.463 2.633V3.698l-3.909.346v28.883h3.91v-2.048a9.04 9.04 0 006.462 2.633c5.905-.026 10.426-4.68 10.426-11.197 0-6.516-4.549-11.144-10.426-11.197zm-45.665 3.75c2.287.027 4.361 1.383 5.48 3.458l3.377-2.1a10.096 10.096 0 00-8.857-5.107c-5.93.026-10.425 4.68-10.425 11.197 0 6.516 4.494 11.143 10.425 11.197a10.044 10.044 0 008.857-5.107L65.2 26.305c-1.117 2.101-3.19 3.458-5.48 3.458-3.483-.028-6.41-2.9-6.41-7.475 0-4.574 2.927-7.393 6.41-7.42zM80.6 29.735c-3.484-.026-6.41-2.899-6.41-7.447 0-4.574 2.9-7.42 6.41-7.473 3.484.027 6.41 2.899 6.41 7.473-.027 4.548-2.926 7.447-6.41 7.447zm6.463-15.984a9.034 9.034 0 00-6.463-2.633c-5.905.027-10.426 4.681-10.426 11.197 0 6.516 4.494 11.144 10.426 11.197a9.036 9.036 0 006.463-2.633v2.048h3.909v-21.25l-3.91.345v1.73zm-72.688 16.49l7.82 7.925 7.818-7.925a3.658 3.658 0 015.186 0 3.757 3.757 0 010 5.266L22.22 48.672 9.19 35.507a18.823 18.823 0 01-5.372-13.165c0-10.266 8.218-18.618 18.35-18.618a18.227 18.227 0 0112.98 5.452 3.756 3.756 0 010 5.267 3.662 3.662 0 01-5.186 0 10.947 10.947 0 00-7.82-3.272c-6.09 0-11.037 5-11.037 11.197a11.396 11.396 0 003.271 7.873zm7.793-15.373a7.343 7.343 0 015.186 2.181 7.306 7.306 0 0010.4 0 7.564 7.564 0 000-10.532A22.016 22.016 0 0022.167.002C10.013 0 .12 10.002.12 22.342A22.426 22.426 0 006.583 38.14l15.585 15.798L37.753 38.14a7.564 7.564 0 000-10.532 7.303 7.303 0 00-10.399 0l-5.186 5.293-5.186-5.293a7.504 7.504 0 01-2.128-5.266 7.346 7.346 0 017.314-7.474z" fill="#fff"/></g><defs><clipPath id="clip0_120_1497"><path fill="#fff" transform="translate(.12)" d="M0 0h159.55v53.937H0z"/></clipPath></defs></svg>